<?xml version="1.0" standalone="no"?>
<!DOCTYPE svg PUBLIC "-//W3C//DTD SVG 20010904//EN"
 "http://www.w3.org/TR/2001/REC-SVG-20010904/DTD/svg10.dtd">
<svg version="1.0" xmlns="http://www.w3.org/2000/svg"
 width="700.000000pt" height="700.000000pt" viewBox="0 0 700.000000 700.000000"
 preserveAspectRatio="xMidYMid meet">
<metadata>
Created by potrace 1.14, written by Peter Selinger 2001-2017
</metadata>
<g transform="translate(0.000000,700.000000) scale(0.100000,-0.100000)"
fill="#000000" stroke="none">
<path d="M5699 6372 c0 -531 -9 -1454 -14 -1577 -13 -336 -50 -385 -255 -340
-14 4 -36 8 -50 11 -14 3 -59 14 -100 24 -82 21 -112 27 -180 36 -25 3 -53 8
-62 9 -148 29 -578 39 -1633 39 -997 0 -1186 -6 -1290 -36 -128 -38 -209 -153
-206 -293 1 -80 27 -140 84 -199 76 -77 108 -83 477 -91 294 -5 318 -11 401
-95 78 -78 103 -128 103 -210 0 -80 -19 -122 -87 -196 -59 -65 -104 -90 -181
-102 -31 -5 -186 -10 -344 -11 -479 -4 -518 -7 -582 -43 -41 -23 -102 -98
-130 -160 -42 -93 -13 -193 85 -293 75 -77 119 -93 325 -115 58 -6 125 -13
150 -16 166 -19 246 -60 287 -150 46 -102 28 -207 -55 -309 -52 -64 -87 -88
-147 -99 -22 -5 -164 -9 -315 -11 -442 -6 -504 -17 -602 -107 -62 -57 -83
-110 -82 -208 1 -75 4 -92 29 -133 29 -50 97 -109 153 -132 62 -27 192 -36
573 -39 397 -5 471 -9 526 -32 70 -28 170 -144 193 -222 20 -72 -41 -190 -136
-262 -65 -49 -100 -65 -190 -86 -173 -40 -280 -148 -289 -292 -7 -123 77 -245
184 -270 98 -23 315 -27 1306 -27 849 0 1216 5 1380 19 129 12 270 33 350 53
33 8 65 16 72 17 7 1 16 5 19 9 4 4 14 7 22 7 48 0 362 158 485 245 141 99
335 285 479 460 262 320 346 557 373 1063 19 349 25 896 29 2688 l3 1391 -551
182 c-303 101 -558 185 -566 188 -41 16 -40 23 -41 -285z m-669 -2276 c19 -4
51 -8 70 -11 121 -17 224 -52 388 -131 180 -87 329 -185 445 -293 53 -49 197
-222 246 -295 102 -150 143 -274 108 -321 -14 -18 -27 -20 -184 -19 -148 0
-402 10 -503 19 -19 2 -91 6 -160 10 -68 4 -133 9 -142 10 -38 8 -372 18 -553
18 -224 -1 -375 -7 -625 -28 -30 -2 -100 -7 -155 -11 -55 -3 -118 -8 -140 -10
-22 -2 -135 -6 -251 -9 -204 -5 -264 1 -280 27 -50 80 66 288 296 531 85 89
144 141 316 276 36 28 165 94 264 134 146 58 268 91 385 103 33 3 62 8 64 9 5
6 372 -3 411 -9z m-128 -1270 c140 -21 304 -135 381 -267 89 -151 98 -358 23
-521 -86 -187 -282 -328 -476 -341 -260 -18 -526 185 -594 453 -17 71 -13 193
10 267 54 173 210 328 389 388 45 15 195 34 220 28 6 -1 26 -4 47 -7z m1358
-745 c65 -31 98 -133 77 -241 -40 -206 -319 -570 -592 -773 -27 -20 -55 -41
-62 -47 -26 -21 -181 -99 -231 -115 -123 -40 -245 -1 -271 86 -18 59 -16 198
4 294 82 398 482 775 862 813 78 8 176 0 213 -17z m-2602 -11 c152 -43 288
-122 417 -242 225 -210 360 -502 348 -752 -4 -89 -25 -130 -79 -162 -144 -85
-386 18 -665 283 -207 197 -374 437 -425 609 -20 68 -26 163 -12 182 6 6 7 12
4 12 -4 0 5 16 20 35 38 51 94 66 219 60 57 -2 132 -13 173 -25z"/>
<path d="M1135 4542 c-98 -32 -189 -159 -210 -295 -13 -80 75 -191 202 -254
66 -33 78 -35 133 -30 157 14 296 178 276 326 -25 181 -226 308 -401 253z"/>
<path d="M378 3329 c-85 -13 -149 -70 -204 -179 -54 -108 -31 -206 72 -306 91
-90 114 -95 434 -99 269 -3 370 4 419 30 45 23 118 103 146 160 44 88 38 172
-17 257 -49 77 -112 116 -221 135 -51 9 -577 11 -629 2z"/>
<path d="M1120 896 c-85 -15 -137 -43 -177 -95 -92 -119 -72 -293 45 -389 82
-68 150 -82 372 -78 140 2 176 6 237 25 128 41 182 110 188 240 7 159 -55 244
-210 286 -74 20 -359 27 -455 11z"/>
</g>
</svg>
