<?xml version="1.0" encoding="utf-8"?>
<!-- Generator: Adobe Illustrator 16.0.0, SVG Export Plug-In . SVG Version: 6.00 Build 0)  -->
<!DOCTYPE svg PUBLIC "-//W3C//DTD SVG 1.1//EN" "http://www.w3.org/Graphics/SVG/1.1/DTD/svg11.dtd">
<svg version="1.1" id="Layer_1" xmlns="http://www.w3.org/2000/svg" xmlns:xlink="http://www.w3.org/1999/xlink" x="0px" y="0px"
	 width="612px" height="792px" viewBox="0 0 612 792" enable-background="new 0 0 612 792" xml:space="preserve">
<path fill="#eab308" d="M102,124c12.219,0,22.737,8.702,25.075,20.729L128.669,158h446.993c21.569,0,38.781,21.516,32.726,43.201
	l-57.375,204.043C546.869,419.906,533.481,430,518.287,430H181.369l9.775,51H518.5c14.131,0,25.5,11.369,25.5,25.5
	S532.631,532,518.5,532H169.044c-11.263,0-21.781-8.713-24.119-20.719L80.899,175H25.5C11.422,175,0,163.578,0,149.5
	S11.422,124,25.5,124H102z M136,617c0-28.156,22.844-51,51-51s51,22.844,51,51s-22.844,51-51,51S136,645.156,136,617z M544,617
	c0,28.156-22.844,51-51,51s-51-22.844-51-51s22.844-51,51-51S544,588.844,544,617z"/>
</svg>
